<svg xmlns="http://www.w3.org/2000/svg" viewBox="0 0 100 100">
  <g fill="#F3EFE9">
    <path d="M 8 22 L 92 22 L 88 32 L 12 32 Z"/>
    <rect x="14" y="33" width="72" height="3" opacity="0.6"/>
    <path d="M 14 36 C 8 36 6 42 10 46 C 12 48 16 48 18 46 C 20 44 20 40 17 39" stroke="#F3EFE9" stroke-width="2.2" fill="none" stroke-linecap="round"/>
    <path d="M 86 36 C 92 36 94 42 90 46 C 88 48 84 48 82 46 C 80 44 80 40 83 39" stroke="#F3EFE9" stroke-width="2.2" fill="none" stroke-linecap="round"/>
    <path d="M 14 36 L 86 36 L 84 42 L 16 42 Z"/>
  </g>
  <g stroke="#F3EFE9" stroke-width="2.5" stroke-linecap="round">
    <line x1="28" y1="46" x2="28" y2="92"/>
    <line x1="38" y1="46" x2="38" y2="92"/>
    <line x1="48" y1="46" x2="48" y2="92"/>
    <line x1="58" y1="46" x2="58" y2="92"/>
    <line x1="68" y1="46" x2="68" y2="92"/>
  </g>
</svg>
